<?xml version="1.0" encoding="UTF-8" standalone="no"?>
<svg width="160px" height="217px" viewBox="0 0 160 217" version="1.1" xmlns="http://www.w3.org/2000/svg" xmlns:xlink="http://www.w3.org/1999/xlink" xmlns:sketch="http://www.bohemiancoding.com/sketch/ns">
    <!-- Generator: Sketch 3.0.4 (8054) - http://www.bohemiancoding.com/sketch -->
    <title>auntmarylogoCMYK</title>
    <desc>Created with Sketch.</desc>
    <defs>
        <path id="path-1" d="M0.0466019417,0.319666667 L159.845437,0.319666667 L159.845437,217 L0.0466019417,217"></path>
    </defs>
    <g id="Page-1" stroke="none" stroke-width="1" fill="none" fill-rule="evenodd" sketch:type="MSPage">
        <g id="auntmarylogoCMYK" sketch:type="MSLayerGroup">
            <g id="Group-3">
                <mask id="mask-2" sketch:name="Clip 2" fill="white">
                    <use xlink:href="#path-1"></use>
                </mask>
                <g id="Clip-2"></g>
                <path d="M19.0532039,37.2991111 L22.7984466,41.3598889 C18.0846602,52.7473333 15.104466,62.6041111 13.8570874,70.9278889 C12.6097087,79.254 12.5499029,88.2241111 13.68,97.8397778 C14.8093204,107.457778 17.3809709,118.150667 21.3933981,129.922333 C25.2481553,141.228889 29.6947573,150.99 34.7347573,159.204111 C39.7739806,167.421333 45.4423301,174.547333 51.7374757,180.584444 C58.0318447,186.621556 66.2042718,192.487556 76.2570874,198.180111 L75.6838835,203.426222 C64.1491262,198.175444 55.1704854,193.41 48.7495146,189.132222 C38.2827184,182.221667 29.4213592,174.244778 22.1623301,165.201556 C14.903301,156.160667 9.3568932,146.013778 5.5215534,134.764778 C1.74679612,123.689222 -0.0932038835,112.567778 0.00388349515,101.398889 C0.100970874,90.2315556 2.02252427,78.9553333 5.76854369,67.5748889 C8.35029126,59.7006667 12.7774757,49.609 19.0532039,37.2991111" id="Fill-1" fill="#5087B9" sketch:type="MSShapeGroup" mask="url(#mask-2)"></path>
            </g>
            <path d="M123.408155,83.0518889 C125.947961,90.0378889 127.365437,96.9188889 127.664466,103.694111 C127.961942,110.469333 127.071068,117.173778 124.994175,123.805889 C122.883107,130.543 119.698641,136.571556 115.443107,141.891556 C111.185243,147.213889 105.92466,151.852556 99.6551456,155.809111 C95.8104854,158.259889 90.4093204,160.948667 83.4500971,163.874667 L82.9879612,160.681111 C89.0275728,157.453333 93.912233,154.079333 97.6419417,150.558333 C101.372427,147.038111 104.694369,142.843556 107.607767,137.973111 C110.522718,133.105 113.04,127.284111 115.161942,120.512778 C117.36932,113.464556 118.718447,107.037 119.205437,101.230111 C119.692427,95.4232222 119.464078,89.9818889 118.521942,84.9045556 C117.579806,79.828 115.542524,73.7838889 112.410097,66.773 L114.619029,64.393 C118.728544,71.9996667 121.659029,78.2187778 123.408155,83.0518889" id="Fill-4" fill="#5087B9" sketch:type="MSShapeGroup"></path>
            <path d="M71.832233,158.442667 L71.832233,85.7336667 L71.9130097,85.6753333 C72.167767,85.6823333 72.4248544,85.6862222 72.6850485,85.6862222 C77.687767,85.6862222 83.6504854,84.4246667 89.6574757,81.8486667 C98.9669903,77.854 105.918447,71.7507778 108.300583,66.1577778 L108.300583,122.091667 L71.832233,158.442667" id="Fill-5" fill="#83A5CB" sketch:type="MSShapeGroup"></path>
            <path d="M108.643107,59.3856667 C111.502136,66.0636667 103.001942,76.1226667 89.6574757,81.8486667 C76.3060194,87.5746667 63.1712621,86.8046667 60.312233,80.1266667 C57.4532039,73.4486667 65.9603883,63.3896667 79.3048544,57.6636667 C92.6493204,51.9376667 105.784078,52.7076667 108.643107,59.3856667" id="Fill-6" fill="#FFFFFF" sketch:type="MSShapeGroup"></path>
            <path d="M67.7009709,164.630667 L26.5840777,118.619667 L26.5840777,39.3236667 L63.3056311,69.0565556 C60.1801942,72.9571111 58.9436893,76.9292222 60.312233,80.1266667 C61.4221359,82.719 64.0815534,84.4215556 67.7009709,85.1985556 L67.7009709,164.630667" id="Fill-7" fill="#83A5CB" sketch:type="MSShapeGroup"></path>
            <path d="M67.7009709,85.1985556 C64.0815534,84.4215556 61.4221359,82.719 60.312233,80.1266667 C58.9436893,76.9292222 60.1801942,72.9571111 63.3056311,69.0565556 L67.7009709,72.6156667 L67.7009709,85.1985556" id="Fill-8" fill="#83A5CB" sketch:type="MSShapeGroup"></path>
            <g id="Group-12" sketch:type="MSShapeGroup">
                <path d="M26.528932,32.4737778 C24.4357282,42.6836667 33.5456311,58.4173333 46.8792233,67.6184444 C60.2104854,76.8187778 72.7161165,76.0021111 74.8085437,65.7914444 C76.9025243,55.5831111 67.7918447,39.8463333 54.4590291,30.646 C41.1269903,21.4448889 28.6221359,22.2638889 26.528932,32.4737778" id="Fill-9" fill="#FFFFFF"></path>
                <path d="M70.0279612,4.998 C64.6508738,0.530444444 53.2093204,5.65677778 44.1126214,16.6351111 C35.1751456,27.4205556 32.2128155,40.2445556 37.5906796,44.7128889 C42.967767,49.1812222 54.2493204,44.247 63.1875728,33.4607778 C72.5234951,22.1946667 75.5456311,9.583 70.0279612,4.998 L70.0279612,4.998 Z M36.5724272,45.6563333 C27.9836893,38.5186667 28.6407767,22.6411111 37.8974757,11.4706667 C47.3141748,0.107333333 62.087767,-3.06366667 70.8862136,4.24744444 C79.6854369,11.5593333 79.2970874,26.6847778 69.801165,38.1437778 C60.624466,49.2185556 45.0928155,52.7356667 36.5724272,45.6563333 L36.5724272,45.6563333 Z" id="Fill-11" fill="#5087B9"></path>
            </g>
            <path d="M78.2648544,57.5081111 C85.1052427,66.9627778 94.2718447,71.8456667 99.0570874,68.6357778 C103.843107,65.4258889 102.142136,54.782 95.3009709,45.3288889 C88.3378641,35.7062222 79.0493204,30.653 74.2640777,33.8636667 C69.3537864,37.1567778 71.1184466,47.6334444 78.2648544,57.5081111 L78.2648544,57.5081111 Z M72.4279612,60.7965556 C65.1596117,50.7523333 65.7584466,38.4401111 73.5899029,33.187 C81.4213592,27.9346667 93.6248544,31.6586667 100.831845,41.6188889 C107.91767,51.4095556 107.499029,64.3533333 99.8539806,69.4812222 C92.2718447,74.5678889 79.4516505,70.5024444 72.4279612,60.7965556 L72.4279612,60.7965556 Z" id="Fill-13" fill="#5087B9" sketch:type="MSShapeGroup"></path>
            <path d="M67.0803883,177.838889 L70.2656311,177.838889 L68.678835,173.395444 L67.0803883,177.838889 L67.0803883,177.838889 Z M68.3829126,172.063111 L69.592233,172.063111 L72.8031068,180.699556 C72.9607767,181.132778 73.12,181.419778 73.28,181.560556 C73.44,181.700556 73.6559223,181.771333 73.9269903,181.771333 L74.0900971,181.771333 L74.0900971,182.393556 L70.4186408,182.393556 L70.4186408,181.771333 C70.536699,181.761222 70.6524272,181.756556 70.7658252,181.756556 C71.0027184,181.756556 71.1580583,181.731667 71.2318447,181.682667 C71.3747573,181.588556 71.4462136,181.469556 71.4462136,181.327222 C71.4462136,181.223778 71.3770874,180.969444 71.2396117,180.564222 L70.5561165,178.564556 L66.8194175,178.564556 L66.0147573,180.801444 C65.9308738,181.034 65.8881553,181.193444 65.8881553,181.282889 C65.8881553,181.381667 65.9145631,181.467222 65.9666019,181.541889 C66.0178641,181.615778 66.0885437,181.671778 66.1770874,181.708333 C66.2656311,181.745667 66.4093204,181.763556 66.6058252,181.763556 C66.7394175,181.763556 66.8473786,181.765889 66.9312621,181.771333 L66.9312621,182.393556 L63.847767,182.393556 L63.847767,181.771333 C64.1335922,181.771333 64.3394175,181.743333 64.464466,181.686556 C64.591068,181.629 64.7005825,181.538 64.7937864,181.412 C64.887767,181.286 65.0112621,181.020778 65.1634951,180.616333 L68.3829126,172.063111 L68.3829126,172.063111 Z" id="Fill-14" fill="#5087B9" sketch:type="MSShapeGroup"></path>
            <path d="M74.4318447,175.246556 L77.2349515,175.136111 L77.2349515,179.905444 C77.2349515,180.324667 77.2932039,180.658333 77.408932,180.904889 C77.5246602,181.152222 77.7025243,181.342778 77.9417476,181.478889 C78.1801942,181.614222 78.4605825,181.682667 78.7805825,181.682667 C79.1751456,181.682667 79.6225243,181.576111 80.1227184,181.363778 C80.6236893,181.152222 81.1223301,180.836444 81.6201942,180.416444 L81.6201942,176.964667 C81.6201942,176.599889 81.5930097,176.360333 81.5394175,176.246778 C81.4850485,176.133222 81.3887379,176.042222 81.2504854,175.973 C81.1130097,175.903778 80.895534,175.868778 80.5996117,175.868778 L80.0605825,175.868778 L80.0605825,175.246556 L82.8629126,175.136111 L82.8629126,180.659889 C82.8629126,181.015333 82.8924272,181.261889 82.9514563,181.396444 C83.0104854,181.533333 83.0982524,181.629 83.2139806,181.686556 C83.3304854,181.743333 83.5627184,181.771333 83.9130097,181.771333 L84.1421359,181.771333 L84.1421359,182.393556 L81.6869903,182.519556 L81.6869903,181.149111 C81.0112621,181.687333 80.4225243,182.059111 79.9192233,182.264444 C79.416699,182.468222 78.9064078,182.570889 78.3883495,182.570889 C78.0038835,182.570889 77.6699029,182.519556 77.3864078,182.415333 C77.1036893,182.311889 76.8543689,182.156333 76.64,181.948667 C76.4248544,181.741778 76.2617476,181.492889 76.1475728,181.201222 C76.0349515,180.910333 75.9782524,180.599222 75.9782524,180.267889 L75.9782524,176.898556 C75.9782524,176.597556 75.951068,176.386 75.896699,176.265444 C75.8423301,176.144111 75.752233,176.048444 75.6264078,175.976889 C75.5005825,175.905333 75.3297087,175.868778 75.112233,175.868778 L74.4318447,175.868778 L74.4318447,175.246556" id="Fill-15" fill="#5087B9" sketch:type="MSShapeGroup"></path>
            <path d="M85.2916505,176.306667 L85.2916505,175.691444 C85.7312621,175.642444 86.0598058,175.583333 86.2765049,175.513333 C86.4932039,175.444889 86.8062136,175.296333 87.215534,175.069222 L87.7483495,175.069222 L87.7483495,176.476222 C88.3976699,175.927889 88.952233,175.556889 89.4135922,175.361667 C89.8733981,175.167222 90.3401942,175.069222 90.8124272,175.069222 C91.215534,175.069222 91.5728155,175.136889 91.8834951,175.273 C92.1933981,175.408333 92.4458252,175.592667 92.64,175.824444 C92.8341748,176.057 92.9638835,176.320667 93.0283495,176.617 C93.0671845,176.799778 93.0881553,177.076667 93.0881553,177.446111 L93.0881553,180.705 C93.0881553,181.094667 93.1153398,181.345111 93.1728155,181.456333 C93.2287379,181.567556 93.3180583,181.647667 93.4431068,181.697444 C93.5658252,181.746444 93.8687379,181.771333 94.3518447,181.771333 L94.3518447,182.393556 L90.5506796,182.393556 L90.5506796,181.771333 L90.7580583,181.771333 C91.1130097,181.771333 91.3537864,181.739444 91.4827184,181.674889 C91.6100971,181.611111 91.7025243,181.517 91.76,181.394111 C91.816699,181.270444 91.8454369,181.018444 91.8454369,180.638111 L91.8454369,177.912778 C91.8454369,177.349667 91.798835,176.96 91.7079612,176.743 C91.6163107,176.526 91.4617476,176.348667 91.2419417,176.213333 C91.0229126,176.078 90.7456311,176.010333 90.4100971,176.010333 C90.0116505,176.010333 89.584466,176.112222 89.1308738,176.316778 C88.6772816,176.522111 88.2376699,176.824667 87.8151456,177.223667 L87.8151456,180.638111 C87.8151456,181.023111 87.8431068,181.279778 87.8998058,181.408111 C87.9557282,181.536444 88.0481553,181.632889 88.1770874,181.697444 C88.2656311,181.746444 88.5017476,181.771333 88.8869903,181.771333 L89.1013592,181.771333 L89.1013592,182.393556 L85.2854369,182.393556 L85.2854369,181.771333 L85.471068,181.771333 C85.8384466,181.771333 86.0885437,181.740222 86.2221359,181.678778 C86.3565049,181.617333 86.4512621,181.507667 86.5056311,181.349 C86.5343689,181.270444 86.5499029,180.999 86.5499029,180.534667 L86.5499029,176.306667 L85.2916505,176.306667" id="Fill-16" fill="#5087B9" sketch:type="MSShapeGroup"></path>
            <path d="M97.3871845,172.728889 L97.9130097,172.728889 L97.9130097,175.246556 L100.108738,175.246556 L100.108738,175.987 L97.9130097,175.987 L97.9130097,180.453778 C97.9130097,180.833333 97.9448544,181.104778 98.0116505,181.267333 C98.0784466,181.429889 98.1926214,181.563667 98.3526214,181.667111 C98.5126214,181.771333 98.6912621,181.822667 98.8885437,181.822667 C99.3568932,181.822667 99.8749515,181.613444 100.441165,181.193444 L100.441165,181.912111 C99.7941748,182.351556 99.1401942,182.570889 98.4776699,182.570889 C98.103301,182.570889 97.7631068,182.487667 97.4594175,182.318889 C97.1549515,182.151667 96.9475728,181.954111 96.8365049,181.726222 C96.7254369,181.499889 96.6702913,181.104778 96.6702913,180.541667 L96.6702913,175.987 L95.375534,175.987 L95.375534,175.365556 C95.791068,175.271444 96.1266019,175.126 96.3813592,174.928444 C96.6361165,174.730889 96.8434951,174.474222 97.0019417,174.158444 C97.1596117,173.842667 97.2885437,173.365889 97.3871845,172.728889" id="Fill-17" fill="#5087B9" sketch:type="MSShapeGroup"></path>
            <path d="M106.497864,172.063111 L109.75767,172.063111 L112.80233,180.245333 L115.777087,172.063111 L118.921942,172.063111 L118.921942,172.684556 L118.657087,172.684556 C118.335534,172.684556 118.119612,172.711778 118.00932,172.767 C117.898252,172.821444 117.810485,172.917111 117.746796,173.054 C117.683107,173.190889 117.651262,173.415667 117.651262,173.728333 L117.651262,180.541667 C117.651262,180.971778 117.676893,181.251 117.728155,181.378556 C117.780194,181.507667 117.866408,181.604889 117.986796,181.671778 C118.107184,181.737889 118.330874,181.771333 118.657087,181.771333 L118.921942,181.771333 L118.921942,182.393556 L114.980971,182.393556 L114.980971,181.771333 L115.261359,181.771333 C115.513786,181.771333 115.697087,181.751889 115.812039,181.712222 C115.92932,181.672556 116.024854,181.607222 116.100971,181.515444 C116.177864,181.424444 116.220583,181.330333 116.23068,181.230778 C116.255534,181.028556 116.267184,180.870667 116.267184,180.756333 L116.267184,173.151222 L112.897864,182.393556 L112.159223,182.393556 L108.768932,173.285 L108.768932,180.600778 C108.768932,180.974111 108.800777,181.226111 108.864466,181.357556 C108.928932,181.489778 109.02835,181.590889 109.165049,181.662444 C109.300194,181.735556 109.542524,181.771333 109.892816,181.771333 L110.129709,181.771333 L110.129709,182.393556 L106.497864,182.393556 L106.497864,181.771333 L106.706019,181.771333 C107.055534,181.771333 107.305631,181.734 107.456311,181.660111 C107.60699,181.586222 107.713398,181.481222 107.778641,181.345111 C107.84233,181.209778 107.874175,180.942222 107.874175,180.541667 L107.874175,173.795222 C107.874175,173.418 107.84699,173.167556 107.791845,173.046222 C107.738252,172.924889 107.648155,172.833889 107.523107,172.774778 C107.396505,172.714111 107.173592,172.684556 106.852816,172.684556 L106.497864,172.684556 L106.497864,172.063111" id="Fill-18" fill="#5087B9" sketch:type="MSShapeGroup"></path>
            <path d="M125.739806,178.749667 C124.594951,178.917667 123.887379,179.033556 123.615534,179.098111 C123.078058,179.221778 122.693592,179.356333 122.461359,179.505667 C122.229126,179.652667 122.063689,179.812111 121.965049,179.982444 C121.866408,180.153556 121.817476,180.334778 121.817476,180.526889 C121.817476,180.719 121.872621,180.906444 121.984466,181.086111 C122.094757,181.266556 122.25165,181.408111 122.453592,181.512333 C122.656311,181.615778 122.87068,181.667111 123.097476,181.667111 C123.418252,181.667111 123.780971,181.590889 124.185631,181.437667 C124.589515,181.285222 125.10835,180.986556 125.739806,180.541667 L125.739806,178.749667 L125.739806,178.749667 Z M125.743689,178.105667 L125.744466,177.298333 C125.744466,176.75 125.59068,176.359556 125.28466,176.123889 C124.978641,175.889778 124.546796,175.773111 123.987573,175.773111 C123.711068,175.773111 123.469515,175.806556 123.261359,175.872667 C123.054757,175.939556 122.887767,176.030556 122.761942,176.146444 C122.636117,176.262333 122.542913,176.394556 122.483107,176.543111 C122.458252,176.597556 122.399223,176.807556 122.306019,177.172333 C122.191845,177.616444 121.962718,177.838889 121.617864,177.838889 C121.420583,177.838889 121.261359,177.773556 121.140971,177.642889 C121.019806,177.511444 120.959223,177.335667 120.959223,177.113222 C120.959223,176.787333 121.081165,176.467667 121.321942,176.154222 C121.563495,175.840778 121.93165,175.581778 122.427961,175.376444 C122.923495,175.171889 123.50835,175.069222 124.184078,175.069222 C124.814757,175.069222 125.35534,175.167222 125.803495,175.361667 C126.252427,175.556111 126.583301,175.836111 126.794563,176.201667 C126.942136,176.452111 127.016699,176.911 127.016699,177.576778 L127.016699,180.424222 C127.016699,180.829444 127.029126,181.093111 127.053204,181.216 C127.107573,181.428333 127.20233,181.588556 127.338252,181.693556 C127.473398,181.799333 127.649709,181.852222 127.867184,181.852222 C128.093981,181.852222 128.365049,181.800889 128.680388,181.695889 L128.680388,182.341444 C128.271068,182.460444 127.904466,182.519556 127.578252,182.519556 C127.228738,182.519556 126.933592,182.469 126.695146,182.371 C126.455922,182.272222 126.260194,182.127556 126.106408,181.937778 C125.953398,181.748 125.855534,181.522444 125.810485,181.260333 C125.219417,181.724667 124.684272,182.049778 124.205825,182.238 C123.728155,182.425444 123.245049,182.519556 122.757282,182.519556 C122.076117,182.519556 121.523883,182.334444 121.100583,181.963444 C120.675728,181.593222 120.464466,181.159222 120.464466,180.659889 C120.464466,180.358889 120.542136,180.072667 120.696699,179.802 C120.853592,179.529778 121.089709,179.290222 121.408155,179.083333 C121.726602,178.875667 122.226019,178.692889 122.907184,178.535 C123.58835,178.377111 124.533592,178.234 125.743689,178.105667 L125.743689,178.105667 Z" id="Fill-19" fill="#5087B9" sketch:type="MSShapeGroup"></path>
            <path d="M129.349903,176.306667 L129.349903,175.691444 C129.708738,175.661889 130.027961,175.602 130.30835,175.511778 C130.587961,175.422333 130.907961,175.273778 131.266796,175.069222 L131.819806,175.069222 L131.819806,176.469222 C132.170097,176.039111 132.576311,175.698444 133.04,175.446444 C133.503689,175.195222 133.92,175.069222 134.289709,175.069222 C134.654757,175.069222 134.942913,175.155556 135.155728,175.328222 C135.36699,175.500889 135.473398,175.710889 135.473398,175.957444 C135.473398,176.135556 135.402718,176.292667 135.262136,176.428 C135.12233,176.564111 134.95301,176.631778 134.755728,176.631778 C134.667184,176.631778 134.590291,176.619333 134.526602,176.595222 C134.462136,176.570333 134.368155,176.515889 134.245437,176.431889 C133.973592,176.253778 133.747573,176.165111 133.565049,176.165111 C133.318058,176.165111 133.047767,176.269333 132.751845,176.476222 C132.376699,176.743 132.083883,177.005111 131.871068,177.261 L131.871068,180.675444 C131.871068,180.971778 131.888155,181.172444 131.92,181.278222 C131.951845,181.384778 132.00466,181.475778 132.079223,181.553556 C132.152233,181.629 132.243883,181.685778 132.351845,181.72 C132.460583,181.753444 132.650874,181.771333 132.921942,181.771333 L133.165825,181.771333 L133.165825,182.393556 L129.342136,182.393556 L129.342136,181.771333 L129.660583,181.771333 C129.961165,181.771333 130.158447,181.744889 130.25165,181.689667 C130.379806,181.615778 130.47534,181.513889 130.535922,181.382444 C130.598835,181.251778 130.629126,181.015333 130.629126,180.675444 L130.629126,176.306667 L129.349903,176.306667" id="Fill-20" fill="#5087B9" sketch:type="MSShapeGroup"></path>
            <path d="M136.149126,175.246556 L139.740583,175.246556 L139.740583,175.868778 L139.44466,175.868778 C139.163495,175.868778 138.996505,175.876556 138.942136,175.891333 L138.779806,176.013444 C138.734757,176.075667 138.71301,176.152667 138.71301,176.246778 C138.71301,176.380556 138.779806,176.605333 138.912621,176.921889 L140.63068,180.957 L142.219806,177.098444 C142.408544,176.644222 142.501748,176.342444 142.501748,176.194667 C142.501748,176.081111 142.459806,175.998667 142.375922,175.946556 C142.291262,175.894444 142.101748,175.868778 141.805825,175.868778 L141.458641,175.868778 L141.458641,175.246556 L144.479223,175.246556 L144.479223,175.868778 L144.301359,175.868778 C144.005437,175.868778 143.813592,175.888222 143.725049,175.927889 C143.636505,175.967556 143.549515,176.048444 143.465631,176.168222 C143.381748,176.289556 143.248932,176.564111 143.066408,176.992667 L140.357282,183.326111 C140.16,183.780333 139.940194,184.201111 139.698641,184.589222 C139.457087,184.976556 139.154175,185.276778 138.78835,185.489111 C138.424854,185.701444 138.022524,185.807222 137.583689,185.807222 C137.075728,185.807222 136.669515,185.691333 136.362718,185.458778 C136.101748,185.261222 135.971262,185.015444 135.971262,184.719111 C135.971262,184.536333 136.027961,184.383889 136.141359,184.263333 C136.255534,184.142 136.38835,184.082111 136.540583,184.082111 C136.658641,184.082111 136.770485,184.107 136.873786,184.155222 C136.938252,184.180889 137.071068,184.284333 137.27301,184.467111 C137.519223,184.684111 137.693204,184.817889 137.794175,184.866111 C137.895146,184.916667 137.99534,184.940778 138.093981,184.940778 C138.295922,184.940778 138.495534,184.871556 138.692816,184.733889 C138.890097,184.595444 139.057087,184.400222 139.196117,184.149 C139.392621,183.788111 139.555728,183.449778 139.683883,183.134 L139.991456,182.402111 L137.546408,176.921111 C137.373981,176.535333 137.228738,176.275556 137.109903,176.143333 C136.991845,176.010333 136.873786,175.927889 136.754951,175.898333 C136.690485,175.879667 136.488544,175.868778 136.149126,175.868778 L136.149126,175.246556" id="Fill-21" fill="#5087B9" sketch:type="MSShapeGroup"></path>
            <path d="M145.718058,175.891333 L145.319612,175.402111 C146.32932,174.577667 146.834951,173.889333 146.834951,173.336333 C146.834951,173.272556 146.830291,173.194 146.819417,173.099889 C146.736311,173.134111 146.654757,173.161333 146.576311,173.180778 C146.497087,173.200222 146.424078,173.210333 146.354175,173.210333 C146.117282,173.210333 145.927767,173.134111 145.784854,172.980889 C145.641942,172.827667 145.570485,172.633222 145.570485,172.396 C145.570485,172.163444 145.655922,171.962 145.829126,171.788556 C146.00233,171.615111 146.208155,171.529556 146.451262,171.529556 C146.785243,171.529556 147.072621,171.664111 147.311845,171.933222 C147.551068,172.201556 147.67068,172.549222 147.67068,172.973111 C147.67068,173.25 147.613981,173.540111 147.500583,173.844222 C147.387184,174.147556 147.221748,174.428333 147.005049,174.688111 C146.787573,174.947111 146.359612,175.347667 145.718058,175.891333" id="Fill-22" fill="#5087B9" sketch:type="MSShapeGroup"></path>
            <path d="M151.829903,175.246556 L152.348738,175.246556 L153.013592,177.513 L152.347184,177.734667 C152.08233,177.128 151.707961,176.650444 151.227184,176.302 C150.747184,175.953556 150.260194,175.780111 149.76699,175.780111 C149.387184,175.780111 149.078058,175.872667 148.841942,176.057778 C148.605049,176.242889 148.48699,176.456778 148.48699,176.697889 C148.48699,176.925778 148.573204,177.120222 148.746408,177.282778 C148.914175,177.451556 149.290874,177.641333 149.878058,177.853667 L151.319612,178.364667 C152.133592,178.656333 152.687379,178.966667 152.983301,179.297222 C153.274563,179.633222 153.419806,180.013556 153.419806,180.438222 C153.419806,180.798333 153.311845,181.145222 153.094369,181.478889 C152.87767,181.811778 152.563107,182.077 152.152233,182.274556 C151.739806,182.472111 151.267573,182.570889 150.734757,182.570889 C149.906796,182.570889 149.196893,182.334444 148.605049,181.858444 L148.450485,182.393556 L147.923883,182.393556 L147.001165,179.971556 L147.666019,179.705556 C148.115728,180.416444 148.540583,180.919667 148.940583,181.216 C149.498252,181.635222 150.100971,181.845222 150.747961,181.845222 C151.178252,181.845222 151.530874,181.730889 151.807379,181.500667 C152.083883,181.271222 152.221359,181.015333 152.221359,180.734556 C152.221359,180.502 152.135146,180.290444 151.963495,180.098333 C151.786408,179.909333 151.44466,179.727333 150.942913,179.549222 L149.234951,178.927778 C148.499417,178.661 147.989126,178.369333 147.704078,178.053556 C147.417476,177.737 147.274563,177.375333 147.274563,176.964667 C147.274563,176.466889 147.507573,176.025111 147.973592,175.643222 C148.439612,175.260556 149.032233,175.069222 149.752233,175.069222 C150.126602,175.069222 150.462136,175.117444 150.758058,175.213889 C151.053204,175.310333 151.344466,175.469778 151.630291,175.692222 L151.829903,175.246556" id="Fill-23" fill="#5087B9" sketch:type="MSShapeGroup"></path>
            <path d="M91.4733981,187.618667 L92.007767,187.618667 L92.7968932,190.802111 L92.1095146,191.009778 C91.6753398,190.116111 91.0998058,189.413 90.3813592,188.899667 C89.7895146,188.469556 89.135534,188.254889 88.4163107,188.254889 C87.9829126,188.254889 87.5937864,188.332667 87.248932,188.488222 C86.9048544,188.643 86.6462136,188.843667 86.4737864,189.090222 C86.3005825,189.336778 86.2159223,189.588 86.2159223,189.844667 C86.2159223,190.076444 86.2819417,190.300444 86.4147573,190.517444 C86.5483495,190.733667 86.7502913,190.924222 87.0221359,191.089889 C87.2932039,191.255556 87.7374757,191.429 88.3541748,191.611 L90.2842718,192.183444 C90.5203883,192.252667 90.8636893,192.385667 91.3149515,192.583222 C91.7654369,192.780778 92.1172816,192.99 92.368932,193.209333 C92.6198058,193.429444 92.8170874,193.698556 92.9607767,194.017444 C93.1029126,194.336333 93.1743689,194.680889 93.1743689,195.051111 C93.1743689,195.871667 92.815534,196.589556 92.0986408,197.204778 C91.3809709,197.819222 90.4528155,198.126444 89.3133981,198.126444 C88.7269903,198.126444 88.2019417,198.041667 87.7390291,197.871333 C87.2745631,197.701 86.7751456,197.399222 86.2368932,196.963667 L85.8974757,197.949111 L85.3786408,197.949111 L84.6912621,194.238333 L85.3801942,194.098333 C85.631068,194.784333 85.9658252,195.366111 86.3813592,195.846 C86.7984466,196.325111 87.2598058,196.686778 87.7646602,196.931 C88.2695146,197.175222 88.784466,197.297333 89.3056311,197.297333 C90.0163107,197.297333 90.6376699,197.081889 91.1704854,196.653333 C91.6132039,196.293222 91.8361165,195.867778 91.8361165,195.379333 C91.8361165,194.930556 91.6753398,194.561889 91.3553398,194.275667 C91.0291262,193.989444 90.4481553,193.722667 89.6093204,193.476111 L87.7607767,192.942556 C86.7254369,192.641556 85.9961165,192.256556 85.5720388,191.787556 C85.1479612,191.317778 84.9351456,190.780333 84.9351456,190.172889 C84.9351456,189.698444 85.0733981,189.261333 85.3499029,188.858444 C85.6256311,188.456333 86.0504854,188.118778 86.6221359,187.847333 C87.1945631,187.576667 87.8198058,187.440556 88.5001942,187.440556 C89.0726214,187.440556 89.6201942,187.539333 90.1421359,187.736889 C90.5118447,187.875333 90.8520388,188.072111 91.1627184,188.329556 L91.4733981,187.618667" id="Fill-24" fill="#5087B9" sketch:type="MSShapeGroup"></path>
            <path d="M96.4613592,188.284444 L96.9864078,188.284444 L96.9864078,190.802111 L99.1829126,190.802111 L99.1829126,191.542556 L96.9864078,191.542556 L96.9864078,196.009333 C96.9864078,196.388889 97.0198058,196.660333 97.0866019,196.822889 C97.1533981,196.985444 97.2660194,197.119222 97.4267961,197.222667 C97.5875728,197.326889 97.7654369,197.378222 97.9634951,197.378222 C98.4302913,197.378222 98.9483495,197.169 99.5153398,196.749 L99.5153398,197.467667 C98.8691262,197.907111 98.2135922,198.126444 97.5526214,198.126444 C97.176699,198.126444 96.8372816,198.043222 96.5328155,197.874444 C96.2299029,197.707222 96.0217476,197.509667 95.9106796,197.281778 C95.8003883,197.055444 95.744466,196.660333 95.744466,196.097222 L95.744466,191.542556 L94.4497087,191.542556 L94.4497087,190.921111 C94.8660194,190.827 95.2007767,190.681556 95.455534,190.484 C95.711068,190.286444 95.9168932,190.029778 96.0753398,189.714 C96.2337864,189.398222 96.3627184,188.921444 96.4613592,188.284444" id="Fill-25" fill="#5087B9" sketch:type="MSShapeGroup"></path>
            <path d="M104.08932,191.343444 C103.527767,191.343444 103.05165,191.565889 102.662524,192.009222 C102.16932,192.562222 101.923107,193.367222 101.923107,194.424222 C101.923107,195.440778 102.132039,196.215444 102.55068,196.749 C102.930485,197.222667 103.446214,197.459889 104.096311,197.459889 C104.515728,197.459889 104.890097,197.348667 105.217864,197.127 C105.545631,196.904556 105.809709,196.550667 106.012427,196.063778 C106.214369,195.577667 106.316117,195.006778 106.316117,194.350333 C106.316117,193.707889 106.206602,193.133111 105.989903,192.624444 C105.822913,192.22 105.569709,191.904222 105.231845,191.679444 C104.894757,191.455444 104.514175,191.343444 104.08932,191.343444 L104.08932,191.343444 Z M104.14835,190.624778 C104.87301,190.624778 105.501359,190.775667 106.031068,191.076667 C106.560777,191.377667 106.978641,191.817111 107.283883,192.395 C107.589903,192.972111 107.743689,193.631667 107.743689,194.372111 C107.743689,195.112556 107.586796,195.772111 107.27301,196.349222 C106.960777,196.926333 106.533592,197.367333 105.994563,197.670667 C105.453981,197.974778 104.80932,198.126444 104.060583,198.126444 C102.866019,198.126444 101.971262,197.754667 101.372427,197.008778 C100.772816,196.262889 100.47301,195.386333 100.47301,194.379111 C100.47301,193.644111 100.629126,192.990778 100.939806,192.420667 C101.248932,191.850556 101.68466,191.408778 102.24466,191.094556 C102.803883,190.781889 103.438447,190.624778 104.14835,190.624778 L104.14835,190.624778 Z" id="Fill-26" fill="#5087B9" sketch:type="MSShapeGroup"></path>
            <path d="M109.041553,191.862222 L109.041553,191.247 C109.400388,191.217444 109.719612,191.157556 109.999223,191.067333 C110.279612,190.977889 110.598835,190.829333 110.95767,190.624778 L111.51068,190.624778 L111.51068,192.024778 C111.860971,191.594667 112.267961,191.254 112.73165,191.002 C113.194563,190.750778 113.610874,190.624778 113.981359,190.624778 C114.345631,190.624778 114.634563,190.711111 114.845825,190.883778 C115.058641,191.056444 115.164272,191.266444 115.164272,191.513 C115.164272,191.691111 115.094369,191.848222 114.953786,191.983556 C114.812427,192.119667 114.643883,192.187333 114.447379,192.187333 C114.358058,192.187333 114.281942,192.174889 114.218252,192.150778 C114.153786,192.125889 114.060583,192.071444 113.936311,191.987444 C113.666019,191.809333 113.438447,191.720667 113.255922,191.720667 C113.009709,191.720667 112.738641,191.824889 112.443495,192.031778 C112.06835,192.298556 111.774757,192.560667 111.563495,192.816556 L111.563495,196.231 C111.563495,196.527333 111.578252,196.728 111.610874,196.833778 C111.642718,196.940333 111.696311,197.031333 111.76932,197.109111 C111.843883,197.184556 111.934757,197.241333 112.043495,197.275556 C112.152233,197.309 112.341748,197.326889 112.612816,197.326889 L112.857476,197.326889 L112.857476,197.949111 L109.033786,197.949111 L109.033786,197.326889 L109.351456,197.326889 C109.652039,197.326889 109.84932,197.300444 109.943301,197.245222 C110.071456,197.171333 110.166214,197.069444 110.22835,196.938 C110.289709,196.807333 110.320777,196.570889 110.320777,196.231 L110.320777,191.862222 L109.041553,191.862222" id="Fill-27" fill="#5087B9" sketch:type="MSShapeGroup"></path>
            <path d="M115.234175,190.802111 L118.826408,190.802111 L118.826408,191.424333 L118.530485,191.424333 C118.24932,191.424333 118.081553,191.432111 118.027184,191.446889 L117.864854,191.569 C117.820583,191.631222 117.798058,191.708222 117.798058,191.802333 C117.798058,191.936111 117.864854,192.160889 117.998447,192.477444 L119.716505,196.512556 L121.306408,192.654 C121.493592,192.199778 121.587573,191.898 121.587573,191.750222 C121.587573,191.636667 121.544854,191.554222 121.461748,191.502111 C121.377087,191.45 121.187573,191.424333 120.89165,191.424333 L120.543689,191.424333 L120.543689,190.802111 L123.565049,190.802111 L123.565049,191.424333 L123.387184,191.424333 C123.091262,191.424333 122.899417,191.443778 122.810097,191.483444 C122.72233,191.523111 122.636117,191.604 122.551456,191.723778 C122.467573,191.845111 122.334757,192.119667 122.152233,192.548222 L119.44233,198.881667 C119.245049,199.335889 119.025243,199.756667 118.784466,200.144778 C118.542913,200.532111 118.239223,200.832333 117.874951,201.044667 C117.509903,201.257 117.107573,201.362778 116.669515,201.362778 C116.161553,201.362778 115.754563,201.246889 115.44932,201.014333 C115.187573,200.816778 115.057087,200.571 115.057087,200.274667 C115.057087,200.091889 115.113786,199.939444 115.226408,199.818889 C115.340583,199.697556 115.474175,199.637667 115.626408,199.637667 C115.744466,199.637667 115.856311,199.662556 115.959612,199.710778 C116.023301,199.736444 116.156893,199.839889 116.358835,200.022667 C116.605049,200.239667 116.779029,200.373444 116.88,200.421667 C116.980971,200.472222 117.080388,200.496333 117.179029,200.496333 C117.381748,200.496333 117.581359,200.427111 117.778641,200.289444 C117.975922,200.151 118.142913,199.955778 118.281942,199.704556 C118.478447,199.343667 118.641553,199.005333 118.768932,198.689556 L119.077282,197.957667 L116.632233,192.476667 C116.459806,192.090889 116.314563,191.831111 116.196505,191.698889 C116.07767,191.565889 115.959612,191.483444 115.841553,191.453889 C115.777087,191.435222 115.574369,191.424333 115.234175,191.424333 L115.234175,190.802111" id="Fill-28" fill="#5087B9" sketch:type="MSShapeGroup"></path>
            <path d="M126.567767,192.335889 L126.567767,195.186444 C126.567767,195.636 126.599612,195.950222 126.663301,196.130667 C126.727767,196.311111 126.859806,196.497 127.059417,196.686778 C127.259806,196.876556 127.492816,197.026667 127.761553,197.137889 C128.030291,197.248333 128.307573,197.305111 128.594175,197.305111 C129.03301,197.305111 129.432233,197.188444 129.791068,196.956667 C130.151456,196.724889 130.435728,196.381111 130.64233,195.926889 C130.849709,195.472667 130.953786,194.927444 130.953786,194.291222 C130.953786,193.396778 130.733204,192.680444 130.295146,192.143 C129.944854,191.698889 129.454757,191.475667 128.823301,191.475667 C128.497087,191.475667 128.167767,191.537111 127.832233,191.658444 C127.496699,191.778222 127.074951,192.004556 126.567767,192.335889 L126.567767,192.335889 Z M124.060583,188.321778 L124.060583,187.707333 C124.386019,187.683222 124.702136,187.623333 125.006602,187.529222 C125.310291,187.435111 125.649709,187.288111 126.026408,187.085111 L126.567767,187.085111 L126.567767,191.602444 C127.001942,191.276556 127.447767,191.032333 127.906019,190.869 C128.365049,190.705667 128.832621,190.624778 129.311068,190.624778 C129.863301,190.624778 130.373592,190.772556 130.842718,191.068889 C131.310291,191.365222 131.678447,191.783667 131.947961,192.324222 C132.216699,192.864778 132.350291,193.503333 132.350291,194.238333 C132.350291,195.394111 132.013204,196.344556 131.337476,197.089667 C130.711456,197.781111 129.91767,198.126444 128.956117,198.126444 C128.379029,198.126444 127.864078,198.005111 127.411262,197.763222 C127.074951,197.585889 126.749515,197.312111 126.434175,196.941889 L126.027961,197.949111 L125.340583,197.949111 L125.340583,188.321778 L124.060583,188.321778 L124.060583,188.321778 Z" id="Fill-29" fill="#5087B9" sketch:type="MSShapeGroup"></path>
            <path d="M137.412816,191.343444 C136.850485,191.343444 136.375146,191.565889 135.985243,192.009222 C135.492039,192.562222 135.246602,193.367222 135.246602,194.424222 C135.246602,195.440778 135.455534,196.215444 135.874175,196.749 C136.253981,197.222667 136.769709,197.459889 137.420583,197.459889 C137.839223,197.459889 138.212816,197.348667 138.540583,197.127 C138.869126,196.904556 139.133204,196.550667 139.335922,196.063778 C139.537864,195.577667 139.638835,195.006778 139.638835,194.350333 C139.638835,193.707889 139.530874,193.133111 139.313398,192.624444 C139.145631,192.22 138.893204,191.904222 138.55534,191.679444 C138.218252,191.455444 137.836893,191.343444 137.412816,191.343444 L137.412816,191.343444 Z M137.471845,190.624778 C138.197282,190.624778 138.824078,190.775667 139.354563,191.076667 C139.884272,191.377667 140.302136,191.817111 140.607379,192.395 C140.913398,192.972111 141.066408,193.631667 141.066408,194.372111 C141.066408,195.112556 140.909515,195.772111 140.597282,196.349222 C140.283495,196.926333 139.856311,197.367333 139.317282,197.670667 C138.777476,197.974778 138.132816,198.126444 137.383301,198.126444 C136.190291,198.126444 135.293981,197.754667 134.695146,197.008778 C134.096311,196.262889 133.796505,195.386333 133.796505,194.379111 C133.796505,193.644111 133.951845,192.990778 134.262524,192.420667 C134.573204,191.850556 135.008155,191.408778 135.568155,191.094556 C136.128155,190.781889 136.761942,190.624778 137.471845,190.624778 L137.471845,190.624778 Z" id="Fill-30" fill="#5087B9" sketch:type="MSShapeGroup"></path>
            <path d="M146.045825,191.343444 C145.485049,191.343444 145.008155,191.565889 144.619029,192.009222 C144.126602,192.562222 143.879612,193.367222 143.879612,194.424222 C143.879612,195.440778 144.08932,196.215444 144.507961,196.749 C144.887767,197.222667 145.402718,197.459889 146.053592,197.459889 C146.47301,197.459889 146.846602,197.348667 147.174369,197.127 C147.502136,196.904556 147.76699,196.550667 147.969709,196.063778 C148.17165,195.577667 148.272621,195.006778 148.272621,194.350333 C148.272621,193.707889 148.163883,193.133111 147.946408,192.624444 C147.780194,192.22 147.526214,191.904222 147.189126,191.679444 C146.851262,191.455444 146.47068,191.343444 146.045825,191.343444 L146.045825,191.343444 Z M146.104854,190.624778 C146.830291,190.624778 147.458641,190.775667 147.987573,191.076667 C148.518058,191.377667 148.935922,191.817111 149.240388,192.395 C149.547184,192.972111 149.700194,193.631667 149.700194,194.372111 C149.700194,195.112556 149.543301,195.772111 149.230291,196.349222 C148.917282,196.926333 148.490874,197.367333 147.951068,197.670667 C147.411262,197.974778 146.766602,198.126444 146.017087,198.126444 C144.823301,198.126444 143.928544,197.754667 143.328932,197.008778 C142.730097,196.262889 142.430291,195.386333 142.430291,194.379111 C142.430291,193.644111 142.585631,192.990778 142.896311,192.420667 C143.206214,191.850556 143.641165,191.408778 144.201165,191.094556 C144.761165,190.781889 145.394951,190.624778 146.104854,190.624778 L146.104854,190.624778 Z" id="Fill-31" fill="#5087B9" sketch:type="MSShapeGroup"></path>
            <path d="M150.893204,188.321778 L150.893204,187.707333 C151.523107,187.657556 152.174757,187.450667 152.848155,187.085111 L153.415146,187.085111 L153.415146,194.474778 L156.135922,192.314111 C156.570097,191.968 156.786796,191.738556 156.786796,191.625 C156.786796,191.555 156.740194,191.501333 156.64699,191.461667 C156.587184,191.436778 156.441942,191.424333 156.209709,191.424333 L155.818252,191.424333 L155.818252,190.802111 L159.570485,190.802111 L159.570485,191.424333 C159.151068,191.424333 158.816311,191.467889 158.56466,191.554222 C158.313786,191.639778 158.022524,191.809333 157.69165,192.061333 L155.554175,193.709444 L158.07767,196.467444 C158.32,196.734222 158.517282,196.921667 158.669515,197.030556 C158.821748,197.139444 158.975534,197.214111 159.128544,197.256111 C159.280777,197.298889 159.52,197.321444 159.845437,197.326889 L159.845437,197.949111 L155.90835,197.949111 L155.90835,197.326889 L156.212039,197.326889 C156.513398,197.326889 156.702913,197.303556 156.781359,197.256111 C156.860583,197.209444 156.900194,197.146444 156.900194,197.067889 C156.900194,196.987778 156.825631,196.875 156.678058,196.725667 L156.596505,196.637 L154.629126,194.379111 L153.415146,195.298444 L153.415146,196.268333 C153.415146,196.628444 153.443107,196.865667 153.496699,196.979222 C153.550291,197.092 153.636505,197.178333 153.752233,197.238222 C153.867184,197.297333 154.090874,197.326889 154.420971,197.326889 L154.695146,197.326889 L154.695146,197.949111 L150.893204,197.949111 L150.893204,197.326889 C151.322718,197.321444 151.586019,197.305111 151.68466,197.275556 C151.857864,197.221111 151.982136,197.123889 152.058252,196.985444 C152.135146,196.847778 152.173204,196.581778 152.173204,196.186667 L152.173204,188.321778 L150.893204,188.321778" id="Fill-32" fill="#5087B9" sketch:type="MSShapeGroup"></path>
            <path d="M96.2733981,203.981556 L96.2733981,208.313 L97.8664078,208.313 C98.6702913,208.313 99.2349515,208.241444 99.558835,208.098333 C99.8827184,207.955222 100.149126,207.707889 100.361942,207.354 C100.573981,207.000889 100.681165,206.587889 100.681165,206.114222 C100.681165,205.595444 100.55767,205.161444 100.309903,204.813778 C100.063689,204.466111 99.7273786,204.230444 99.303301,204.106778 C99.0073786,204.022778 98.4295146,203.981556 97.5697087,203.981556 L96.2733981,203.981556 L96.2733981,203.981556 Z M93.5743689,203.174222 L97.6528155,203.174222 C98.8900971,203.174222 99.744466,203.252778 100.212816,203.410667 C100.8,203.598111 101.285437,203.919333 101.667573,204.372778 C102.050485,204.827 102.241553,205.405667 102.241553,206.106444 C102.241553,206.703778 102.095534,207.220222 101.804272,207.654222 C101.453981,208.176889 101.027573,208.549444 100.527379,208.768778 C100.026408,208.988111 99.2380583,209.098556 98.1615534,209.098556 L96.2733981,209.098556 L96.2733981,211.749222 C96.2733981,212.145111 96.2951456,212.394 96.3401942,212.497444 C96.3992233,212.639778 96.4807767,212.740111 96.5840777,212.797667 C96.6873786,212.854444 96.8970874,212.882444 97.2124272,212.882444 L97.5673786,212.882444 L97.5673786,213.504667 L93.5743689,213.504667 L93.5743689,212.882444 L93.8182524,212.882444 C94.1584466,212.882444 94.3891262,212.854444 94.5133981,212.797667 C94.6368932,212.740111 94.7262136,212.651444 94.7829126,212.530889 C94.8396117,212.409556 94.8683495,212.181667 94.8683495,211.845667 L94.8683495,204.780333 C94.8683495,204.452111 94.8419417,204.232 94.7906796,204.12 C94.7386408,204.008778 94.6524272,203.926333 94.5320388,203.874222 C94.4108738,203.822111 94.1732039,203.795667 93.8182524,203.795667 L93.5743689,203.795667 L93.5743689,203.174222 L93.5743689,203.174222 Z" id="Fill-33" fill="#5087B9" sketch:type="MSShapeGroup"></path>
            <path d="M102.977087,207.417778 L102.977087,206.802556 C103.335922,206.773 103.655146,206.713111 103.935534,206.622889 C104.215146,206.533444 104.535146,206.384889 104.893981,206.180333 L105.44699,206.180333 L105.44699,207.580333 C105.797282,207.150222 106.203495,206.809556 106.667184,206.557556 C107.130874,206.306333 107.547184,206.180333 107.916893,206.180333 C108.281942,206.180333 108.570097,206.266667 108.782913,206.439333 C108.994175,206.612 109.100583,206.822 109.100583,207.068556 C109.100583,207.246667 109.029903,207.403778 108.88932,207.539111 C108.749515,207.675222 108.580194,207.742889 108.382913,207.742889 C108.294369,207.742889 108.217476,207.730444 108.153786,207.706333 C108.08932,207.681444 107.99534,207.627 107.872621,207.543 C107.600777,207.364889 107.374757,207.276222 107.192233,207.276222 C106.945243,207.276222 106.674951,207.380444 106.379029,207.587333 C106.003107,207.854111 105.711068,208.116222 105.498252,208.372111 L105.498252,211.786556 C105.498252,212.082889 105.51534,212.283556 105.547184,212.389333 C105.579029,212.495889 105.631845,212.586889 105.706408,212.664667 C105.779417,212.740111 105.871068,212.796889 105.979029,212.831111 C106.087767,212.864556 106.278058,212.882444 106.549126,212.882444 L106.79301,212.882444 L106.79301,213.504667 L102.96932,213.504667 L102.96932,212.882444 L103.28699,212.882444 C103.58835,212.882444 103.785631,212.856 103.878835,212.800778 C104.00699,212.726889 104.102524,212.625 104.163107,212.493556 C104.225243,212.362889 104.255534,212.126444 104.255534,211.786556 L104.255534,207.417778 L102.977087,207.417778" id="Fill-34" fill="#5087B9" sketch:type="MSShapeGroup"></path>
            <path d="M113.59301,206.899 C113.029903,206.899 112.55534,207.121444 112.165437,207.564778 C111.672233,208.117778 111.426019,208.922778 111.426019,209.979778 C111.426019,210.996333 111.634951,211.771 112.055146,212.304556 C112.434175,212.778222 112.949903,213.015444 113.600777,213.015444 C114.019417,213.015444 114.392233,212.904222 114.72,212.682556 C115.048544,212.460111 115.313398,212.106222 115.51534,211.619333 C115.717282,211.133222 115.818252,210.562333 115.818252,209.905889 C115.818252,209.263444 115.711068,208.688667 115.493592,208.18 C115.325049,207.775556 115.073398,207.459778 114.735534,207.235 C114.39767,207.011 114.016311,206.899 113.59301,206.899 L113.59301,206.899 Z M113.652039,206.180333 C114.377476,206.180333 115.003495,206.331222 115.533981,206.632222 C116.064466,206.933222 116.481553,207.372667 116.787573,207.950556 C117.092816,208.527667 117.245825,209.187222 117.245825,209.927667 C117.245825,210.668111 117.089709,211.327667 116.776699,211.904778 C116.462913,212.481889 116.036505,212.922889 115.496699,213.226222 C114.956893,213.530333 114.312233,213.682 113.562718,213.682 C112.370485,213.682 111.473398,213.310222 110.874563,212.564333 C110.275728,211.818444 109.976699,210.941889 109.976699,209.934667 C109.976699,209.199667 110.131262,208.546333 110.441942,207.976222 C110.753398,207.406111 111.18835,206.964333 111.747573,206.650111 C112.307573,206.337444 112.942136,206.180333 113.652039,206.180333 L113.652039,206.180333 Z" id="Fill-35" fill="#5087B9" sketch:type="MSShapeGroup"></path>
            <path d="M120.462913,202.840556 C120.699806,202.840556 120.903301,202.923 121.071845,203.087889 C121.240388,203.253556 121.324272,203.455 121.324272,203.692222 C121.324272,203.928667 121.240388,204.131667 121.071845,204.299667 C120.903301,204.467667 120.699806,204.550889 120.462913,204.550889 C120.225243,204.550889 120.023301,204.467667 119.856311,204.299667 C119.69165,204.131667 119.608544,203.928667 119.608544,203.692222 C119.608544,203.455 119.69165,203.253556 119.856311,203.087889 C120.023301,202.923 120.225243,202.840556 120.462913,202.840556 L120.462913,202.840556 Z M118.587961,207.431778 L118.587961,206.817333 C118.956117,206.782333 119.273786,206.723222 119.539417,206.64 C119.805049,206.556 120.14835,206.402778 120.570874,206.180333 L121.109903,206.180333 L121.109903,214.245111 C121.109903,214.827667 120.998835,215.316889 120.776699,215.712 C120.55534,216.106333 120.243883,216.419778 119.845437,216.652333 C119.445437,216.883333 118.970097,217 118.417864,217 C117.885049,217 117.460971,216.888778 117.145631,216.666333 C116.830291,216.444667 116.672621,216.214444 116.672621,215.977222 C116.672621,215.780444 116.735534,215.617889 116.860583,215.488778 C116.986408,215.360444 117.150291,215.296667 117.35301,215.296667 C117.471068,215.296667 117.573592,215.319222 117.659806,215.362778 C117.746796,215.407889 117.867961,215.509 118.025631,215.666889 C118.262524,215.904111 118.452039,216.062 118.594951,216.140556 C118.699029,216.200444 118.814757,216.23 118.942913,216.23 C119.248155,216.23 119.490485,216.081444 119.667573,215.785889 C119.800388,215.568889 119.867184,215.216556 119.867184,214.727333 L119.867184,207.431778 L118.587961,207.431778 L118.587961,207.431778 Z" id="Fill-36" fill="#5087B9" sketch:type="MSShapeGroup"></path>
            <path d="M128.626019,208.602333 C128.55301,208.148111 128.448155,207.812111 128.312233,207.595111 C128.177087,207.378111 127.984466,207.204667 127.735922,207.076333 C127.487379,206.948 127.206214,206.884222 126.896311,206.884222 C126.585631,206.884222 126.294369,206.948 126.023301,207.076333 C125.752233,207.204667 125.52699,207.382778 125.346796,207.609889 C125.166602,207.837 125.010485,208.167556 124.876893,208.602333 L128.626019,208.602333 L128.626019,208.602333 Z M129.572816,211.593667 L130.046602,211.979444 C129.68699,212.408778 129.337476,212.749444 129.000388,213.000667 C128.662524,213.252667 128.342524,213.429222 128.041942,213.530333 C127.742136,213.632222 127.389515,213.682 126.984854,213.682 C126.260194,213.682 125.644272,213.534222 125.135534,213.237889 C124.554563,212.896444 124.107961,212.453111 123.798058,211.904778 C123.486602,211.356444 123.332039,210.710111 123.332039,209.965 C123.332039,209.184111 123.481942,208.518333 123.782524,207.965333 C124.083107,207.412333 124.504078,206.976778 125.043107,206.657889 C125.582913,206.339778 126.208155,206.180333 126.918058,206.180333 C127.446214,206.180333 127.904466,206.262778 128.294369,206.427667 C128.683495,206.592556 129.012816,206.841444 129.28466,207.174333 C129.556505,207.507222 129.753786,207.886778 129.876505,208.315333 C129.945631,208.566556 129.984466,208.891667 129.994563,209.290667 L124.766602,209.290667 C124.751845,209.533333 124.744078,209.713778 124.744078,209.832778 C124.744078,210.455778 124.852039,211.011889 125.069515,211.498778 C125.286214,211.985667 125.574369,212.344222 125.930874,212.574444 C126.288932,212.803889 126.693592,212.919778 127.147184,212.919778 C127.532427,212.919778 127.904466,212.829556 128.264854,212.649111 C128.624466,212.468667 129.060194,212.117889 129.572816,211.593667 L129.572816,211.593667 Z" id="Fill-37" fill="#5087B9" sketch:type="MSShapeGroup"></path>
            <path d="M137.808155,211.438111 L138.281165,211.823889 C137.354563,213.062111 136.24233,213.682 134.946019,213.682 C133.934757,213.682 133.081942,213.321889 132.386796,212.600889 C131.692427,211.880667 131.344466,210.983889 131.344466,209.912889 C131.344466,209.197333 131.505243,208.553333 131.82835,207.984 C132.152233,207.413111 132.601165,206.970556 133.174369,206.654 C133.749126,206.339 134.408544,206.180333 135.152621,206.180333 C136.000777,206.180333 136.709126,206.388778 137.27534,206.805667 C137.84233,207.223333 138.125825,207.644111 138.125825,208.068778 C138.125825,208.295111 138.059029,208.471667 137.926214,208.594556 C137.793398,208.717444 137.642718,208.780444 137.474951,208.780444 C137.387184,208.780444 137.300194,208.757111 137.216311,208.713556 C137.132427,208.668444 137.045437,208.596889 136.95767,208.498111 C136.918058,208.453778 136.846602,208.315333 136.743301,208.083556 C136.610485,207.797333 136.506408,207.604444 136.432621,207.505667 C136.279612,207.308111 136.09165,207.153333 135.867184,207.039 C135.642718,206.926222 135.391845,206.868667 135.116117,206.868667 C134.697476,206.868667 134.309126,206.985333 133.951068,207.217111 C133.593786,207.449667 133.311068,207.791111 133.100583,208.242222 C132.89165,208.694889 132.786019,209.233889 132.786019,209.860778 C132.786019,210.833778 133.045437,211.606111 133.562718,212.179333 C134.01165,212.672444 134.546796,212.919778 135.167379,212.919778 C135.453204,212.919778 135.743689,212.870778 136.036505,212.775111 C136.32932,212.678667 136.607379,212.537111 136.86835,212.348889 C137.060971,212.215889 137.373981,211.912556 137.808155,211.438111" id="Fill-38" fill="#5087B9" sketch:type="MSShapeGroup"></path>
            <path d="M141.250485,203.84 L141.775534,203.84 L141.775534,206.357667 L143.972039,206.357667 L143.972039,207.098111 L141.775534,207.098111 L141.775534,211.564889 C141.775534,211.944444 141.808932,212.215889 141.875728,212.378444 C141.941748,212.541 142.055146,212.674778 142.215922,212.778222 C142.375922,212.882444 142.553786,212.933778 142.751845,212.933778 C143.220194,212.933778 143.737476,212.724556 144.304466,212.304556 L144.304466,213.023222 C143.657476,213.462667 143.002718,213.682 142.341748,213.682 C141.965049,213.682 141.625631,213.598778 141.321942,213.43 C141.019029,213.262778 140.810874,213.065222 140.699806,212.837333 C140.588738,212.611 140.533592,212.215889 140.533592,211.652778 L140.533592,207.098111 L139.239612,207.098111 L139.239612,206.476667 C139.655146,206.382556 139.989903,206.237111 140.24466,206.039556 C140.500194,205.842 140.706019,205.585333 140.863689,205.269556 C141.022136,204.953778 141.151068,204.477 141.250485,203.84" id="Fill-39" fill="#5087B9" sketch:type="MSShapeGroup"></path>
            <path d="M146.32699,207.837 L146.168544,207.837 C146.147573,207.522 145.985243,207.348556 145.709515,207.348556 L145.584466,207.348556 L145.584466,208.884667 C145.582136,209.074444 145.616311,209.107889 145.805825,209.107889 L145.876505,209.107889 L145.876505,209.264222 L144.834175,209.264222 L144.834175,209.107889 L144.911068,209.107889 C145.100583,209.107889 145.133981,209.074444 145.133981,208.884667 L145.133981,207.348556 L145.020583,207.348556 C144.817864,207.348556 144.700583,207.407667 144.626019,207.544556 C144.579417,207.628556 144.553786,207.724222 144.545243,207.837 L144.392233,207.837 L144.427184,207.192222 L146.290485,207.192222 L146.32699,207.837" id="Fill-40" fill="#5087B9" sketch:type="MSShapeGroup"></path>
            <path d="M147.781748,209.264222 L147.545631,209.264222 L146.921165,207.665889 L146.921165,208.881556 C146.921165,209.077556 146.952233,209.107889 147.141748,209.107889 L147.219417,209.107889 L147.219417,209.264222 L146.399223,209.264222 L146.399223,209.107889 L146.47068,209.107889 C146.660194,209.107889 146.695146,209.074444 146.695146,208.884667 L146.695146,207.572556 C146.695146,207.382778 146.660194,207.348556 146.47068,207.348556 L146.40233,207.348556 L146.40233,207.192222 L147.203107,207.192222 L147.781748,208.663778 L148.365825,207.192222 L149.144854,207.192222 L149.144854,207.348556 L149.073398,207.348556 C148.911845,207.348556 148.852039,207.385889 148.852039,207.491667 L148.852039,208.881556 C148.852039,209.065111 148.899417,209.107889 149.082718,209.107889 L149.144854,209.107889 L149.144854,209.264222 L148.110291,209.264222 L148.110291,209.107889 L148.184854,209.107889 C148.374369,209.107889 148.408544,209.074444 148.408544,208.884667 L148.408544,207.687667 L147.781748,209.264222" id="Fill-41" fill="#5087B9" sketch:type="MSShapeGroup"></path>
        </g>
    </g>
</svg>